<svg width="500" height="500" viewBox="0 0 500 500" fill="none" xmlns="http://www.w3.org/2000/svg">
<path d="M225.582 409H10.498V367.808L112.517 258.106C120.459 249.434 127.173 241.556 132.66 234.474C138.148 227.392 142.624 220.888 146.09 214.962C149.411 209.181 151.793 203.761 153.237 198.702C154.826 193.643 155.62 188.729 155.62 183.959C155.62 176.877 154.609 170.59 152.588 165.098C150.566 159.605 147.75 154.908 144.14 151.005C140.386 147.248 135.909 144.357 130.711 142.333C125.657 140.31 120.025 139.298 113.816 139.298C105.73 139.298 98.582 140.454 92.3728 142.767C86.308 144.935 81.254 148.187 77.2108 152.523C73.0232 157.004 69.8464 162.568 67.6804 169.217C65.5144 175.865 64.4314 183.453 64.4314 191.981H4C4 177.961 6.6714 164.736 12.0142 152.306C17.357 139.732 24.938 128.747 34.7572 119.352C44.432 109.958 56.1284 102.586 69.8464 97.2385C83.7088 91.7462 99.0152 89 115.766 89C131.794 89 145.945 91.2403 158.219 95.7209C170.638 100.201 181.034 106.489 189.41 114.583C197.64 122.677 203.922 132.433 208.254 143.851C212.586 155.125 214.752 167.627 214.752 181.358C214.752 191.764 213.091 201.737 209.77 211.276C206.593 220.671 202.045 229.994 196.124 239.244C190.059 248.494 182.839 257.961 174.464 267.645C166.089 277.184 156.775 287.229 146.523 297.78L87.1744 360.653H225.582V409Z" fill="url(#paint0_linear_101_6)" fill-opacity="0.7"/>
<path d="M225.582 409H10.498V367.808L112.517 258.106C120.459 249.434 127.173 241.556 132.66 234.474C138.148 227.392 142.624 220.888 146.09 214.962C149.411 209.181 151.793 203.761 153.237 198.702C154.826 193.643 155.62 188.729 155.62 183.959C155.62 176.877 154.609 170.59 152.588 165.098C150.566 159.605 147.75 154.908 144.14 151.005C140.386 147.248 135.909 144.357 130.711 142.333C125.657 140.31 120.025 139.298 113.816 139.298C105.73 139.298 98.582 140.454 92.3728 142.767C86.308 144.935 81.254 148.187 77.2108 152.523C73.0232 157.004 69.8464 162.568 67.6804 169.217C65.5144 175.865 64.4314 183.453 64.4314 191.981H4C4 177.961 6.6714 164.736 12.0142 152.306C17.357 139.732 24.938 128.747 34.7572 119.352C44.432 109.958 56.1284 102.586 69.8464 97.2385C83.7088 91.7462 99.0152 89 115.766 89C131.794 89 145.945 91.2403 158.219 95.7209C170.638 100.201 181.034 106.489 189.41 114.583C197.64 122.677 203.922 132.433 208.254 143.851C212.586 155.125 214.752 167.627 214.752 181.358C214.752 191.764 213.091 201.737 209.77 211.276C206.593 220.671 202.045 229.994 196.124 239.244C190.059 248.494 182.839 257.961 174.464 267.645C166.089 277.184 156.775 287.229 146.523 297.78L87.1744 360.653H225.582V409Z" fill="url(#paint1_radial_101_6)" fill-opacity="0.5"/>
<path d="M492 409H276.916V367.808L378.935 258.106C386.877 249.434 393.591 241.556 399.079 234.474C404.566 227.392 409.042 220.888 412.508 214.962C415.829 209.181 418.212 203.761 419.656 198.702C421.244 193.643 422.038 188.729 422.038 183.959C422.038 176.877 421.027 170.59 419.006 165.098C416.984 159.605 414.168 154.908 410.558 151.005C406.804 147.248 402.328 144.357 397.129 142.333C392.075 140.31 386.444 139.298 380.234 139.298C372.148 139.298 365 140.454 358.791 142.767C352.726 144.935 347.672 148.187 343.629 152.523C339.441 157.004 336.265 162.568 334.099 169.217C331.933 175.865 330.85 183.453 330.85 191.981H270.418C270.418 177.961 273.09 164.736 278.432 152.306C283.775 139.732 291.356 128.747 301.175 119.352C310.85 109.958 322.547 102.586 336.265 97.2385C350.127 91.7462 365.433 89 382.184 89C398.212 89 412.363 91.2403 424.637 95.7209C437.056 100.201 447.453 106.489 455.828 114.583C464.059 122.677 470.34 132.433 474.672 143.851C479.004 155.125 481.17 167.627 481.17 181.358C481.17 191.764 479.509 201.737 476.188 211.276C473.011 220.671 468.463 229.994 462.542 239.244C456.478 248.494 449.258 257.961 440.882 267.645C432.507 277.184 423.193 287.229 412.941 297.78L353.593 360.653H492V409Z" fill="url(#paint2_linear_101_6)" fill-opacity="0.7"/>
<path d="M492 409H276.916V367.808L378.935 258.106C386.877 249.434 393.591 241.556 399.079 234.474C404.566 227.392 409.042 220.888 412.508 214.962C415.829 209.181 418.212 203.761 419.656 198.702C421.244 193.643 422.038 188.729 422.038 183.959C422.038 176.877 421.027 170.59 419.006 165.098C416.984 159.605 414.168 154.908 410.558 151.005C406.804 147.248 402.328 144.357 397.129 142.333C392.075 140.31 386.444 139.298 380.234 139.298C372.148 139.298 365 140.454 358.791 142.767C352.726 144.935 347.672 148.187 343.629 152.523C339.441 157.004 336.265 162.568 334.099 169.217C331.933 175.865 330.85 183.453 330.85 191.981H270.418C270.418 177.961 273.09 164.736 278.432 152.306C283.775 139.732 291.356 128.747 301.175 119.352C310.85 109.958 322.547 102.586 336.265 97.2385C350.127 91.7462 365.433 89 382.184 89C398.212 89 412.363 91.2403 424.637 95.7209C437.056 100.201 447.453 106.489 455.828 114.583C464.059 122.677 470.34 132.433 474.672 143.851C479.004 155.125 481.17 167.627 481.17 181.358C481.17 191.764 479.509 201.737 476.188 211.276C473.011 220.671 468.463 229.994 462.542 239.244C456.478 248.494 449.258 257.961 440.882 267.645C432.507 277.184 423.193 287.229 412.941 297.78L353.593 360.653H492V409Z" fill="url(#paint3_radial_101_6)" fill-opacity="0.5"/>
<defs>
<linearGradient id="paint0_linear_101_6" x1="24.3258" y1="-17.2504" x2="635.753" y2="408.465" gradientUnits="userSpaceOnUse">
<stop stop-color="#6DB8F9"/>
<stop offset="1" stop-color="#AD46F5"/>
</linearGradient>
<radialGradient id="paint1_radial_101_6" cx="0" cy="0" r="1" gradientUnits="userSpaceOnUse" gradientTransform="translate(279.394 300.217) rotate(-125.337) scale(42.1825 38.4956)">
<stop stop-color="#FADB58"/>
<stop offset="1" stop-color="#F5BA43"/>
</radialGradient>
<linearGradient id="paint2_linear_101_6" x1="24.3258" y1="-17.2504" x2="635.753" y2="408.465" gradientUnits="userSpaceOnUse">
<stop stop-color="#6DB8F9"/>
<stop offset="1" stop-color="#AD46F5"/>
</linearGradient>
<radialGradient id="paint3_radial_101_6" cx="0" cy="0" r="1" gradientUnits="userSpaceOnUse" gradientTransform="translate(279.394 300.217) rotate(-125.337) scale(42.1825 38.4956)">
<stop stop-color="#FADB58"/>
<stop offset="1" stop-color="#F5BA43"/>
</radialGradient>
</defs>
</svg>
